<mxfile host="app.diagrams.net" modified="2023-02-06T13:04:00.830Z" agent="5.0 (X11; Linux x86_64) AppleWebKit/537.36 (KHTML, like Gecko) Chrome/108.0.0.0 Safari/537.36" etag="Rm0MpfnKRx37cVaNS4UD" version="20.8.16" type="github">
  <diagram name="Page-1" id="rmXhRyo28jAQR4ANEOBS">
    <mxGraphModel dx="2843" dy="2120" grid="1" gridSize="10" guides="1" tooltips="1" connect="1" arrows="1" fold="1" page="1" pageScale="1" pageWidth="850" pageHeight="1100" math="0" shadow="0">
      <root>
        <mxCell id="0" />
        <mxCell id="1" parent="0" />
        <mxCell id="WUM4Ieeq0-gzBEpRa9HH-13" style="edgeStyle=orthogonalEdgeStyle;rounded=0;orthogonalLoop=1;jettySize=auto;html=1;exitX=0;exitY=0.5;exitDx=0;exitDy=0;entryX=0.5;entryY=0;entryDx=0;entryDy=0;" edge="1" parent="1" source="WUM4Ieeq0-gzBEpRa9HH-1" target="WUM4Ieeq0-gzBEpRa9HH-6">
          <mxGeometry relative="1" as="geometry">
            <mxPoint x="60" y="370" as="targetPoint" />
          </mxGeometry>
        </mxCell>
        <mxCell id="WUM4Ieeq0-gzBEpRa9HH-32" style="edgeStyle=orthogonalEdgeStyle;rounded=0;orthogonalLoop=1;jettySize=auto;html=1;exitX=1;exitY=0.5;exitDx=0;exitDy=0;entryX=0.939;entryY=-0.05;entryDx=0;entryDy=0;entryPerimeter=0;fontSize=14;" edge="1" parent="1" source="WUM4Ieeq0-gzBEpRa9HH-1" target="WUM4Ieeq0-gzBEpRa9HH-4">
          <mxGeometry relative="1" as="geometry" />
        </mxCell>
        <mxCell id="WUM4Ieeq0-gzBEpRa9HH-37" style="edgeStyle=orthogonalEdgeStyle;rounded=0;orthogonalLoop=1;jettySize=auto;html=1;exitX=0.5;exitY=1;exitDx=0;exitDy=0;fontSize=14;" edge="1" parent="1" source="WUM4Ieeq0-gzBEpRa9HH-1">
          <mxGeometry relative="1" as="geometry">
            <mxPoint x="399.58823529411757" y="310" as="targetPoint" />
          </mxGeometry>
        </mxCell>
        <mxCell id="WUM4Ieeq0-gzBEpRa9HH-1" value="" style="whiteSpace=wrap;html=1;aspect=fixed;" vertex="1" parent="1">
          <mxGeometry x="320" y="-60" width="160" height="160" as="geometry" />
        </mxCell>
        <mxCell id="WUM4Ieeq0-gzBEpRa9HH-30" style="edgeStyle=orthogonalEdgeStyle;rounded=0;orthogonalLoop=1;jettySize=auto;html=1;exitX=0;exitY=0.5;exitDx=0;exitDy=0;fontSize=14;" edge="1" parent="1" source="WUM4Ieeq0-gzBEpRa9HH-2">
          <mxGeometry relative="1" as="geometry">
            <mxPoint x="-70" y="-40" as="targetPoint" />
          </mxGeometry>
        </mxCell>
        <mxCell id="WUM4Ieeq0-gzBEpRa9HH-2" value="Account&amp;nbsp;" style="rounded=1;whiteSpace=wrap;html=1;" vertex="1" parent="1">
          <mxGeometry x="320" y="-60" width="160" height="40" as="geometry" />
        </mxCell>
        <mxCell id="WUM4Ieeq0-gzBEpRa9HH-3" value="" style="whiteSpace=wrap;html=1;aspect=fixed;" vertex="1" parent="1">
          <mxGeometry x="660" y="450" width="180" height="180" as="geometry" />
        </mxCell>
        <mxCell id="WUM4Ieeq0-gzBEpRa9HH-26" style="edgeStyle=orthogonalEdgeStyle;rounded=0;orthogonalLoop=1;jettySize=auto;html=1;exitX=0.75;exitY=0;exitDx=0;exitDy=0;fontSize=14;" edge="1" parent="1" source="WUM4Ieeq0-gzBEpRa9HH-4" target="WUM4Ieeq0-gzBEpRa9HH-8">
          <mxGeometry relative="1" as="geometry">
            <Array as="points">
              <mxPoint x="795" y="370" />
            </Array>
          </mxGeometry>
        </mxCell>
        <mxCell id="WUM4Ieeq0-gzBEpRa9HH-4" value="payments" style="rounded=1;whiteSpace=wrap;html=1;" vertex="1" parent="1">
          <mxGeometry x="660" y="450" width="180" height="40" as="geometry" />
        </mxCell>
        <mxCell id="WUM4Ieeq0-gzBEpRa9HH-5" value="" style="whiteSpace=wrap;html=1;aspect=fixed;" vertex="1" parent="1">
          <mxGeometry x="-100" y="450" width="180" height="180" as="geometry" />
        </mxCell>
        <mxCell id="WUM4Ieeq0-gzBEpRa9HH-33" style="edgeStyle=orthogonalEdgeStyle;rounded=0;orthogonalLoop=1;jettySize=auto;html=1;exitX=0.75;exitY=0;exitDx=0;exitDy=0;entryX=0;entryY=0.25;entryDx=0;entryDy=0;fontSize=14;" edge="1" parent="1" source="WUM4Ieeq0-gzBEpRa9HH-6" target="WUM4Ieeq0-gzBEpRa9HH-8">
          <mxGeometry relative="1" as="geometry" />
        </mxCell>
        <mxCell id="WUM4Ieeq0-gzBEpRa9HH-6" value="transaction" style="rounded=1;whiteSpace=wrap;html=1;" vertex="1" parent="1">
          <mxGeometry x="-100" y="450" width="160" height="40" as="geometry" />
        </mxCell>
        <mxCell id="WUM4Ieeq0-gzBEpRa9HH-8" value="" style="whiteSpace=wrap;html=1;aspect=fixed;" vertex="1" parent="1">
          <mxGeometry x="290" y="320" width="160" height="160" as="geometry" />
        </mxCell>
        <mxCell id="WUM4Ieeq0-gzBEpRa9HH-9" value="Auth&lt;br&gt;" style="rounded=1;whiteSpace=wrap;html=1;" vertex="1" parent="1">
          <mxGeometry x="290" y="320" width="160" height="40" as="geometry" />
        </mxCell>
        <mxCell id="WUM4Ieeq0-gzBEpRa9HH-36" value="" style="edgeStyle=orthogonalEdgeStyle;rounded=0;orthogonalLoop=1;jettySize=auto;html=1;fontSize=14;" edge="1" parent="1" source="WUM4Ieeq0-gzBEpRa9HH-17" target="WUM4Ieeq0-gzBEpRa9HH-2">
          <mxGeometry relative="1" as="geometry" />
        </mxCell>
        <mxCell id="WUM4Ieeq0-gzBEpRa9HH-17" value="&lt;font style=&quot;font-size: 14px;&quot;&gt;Responsável por fazer toda gestão de contas, viabilizar criação de contas,&amp;nbsp; saldos, transações e informações de conta.&lt;/font&gt;" style="text;html=1;strokeColor=none;fillColor=none;align=center;verticalAlign=middle;whiteSpace=wrap;rounded=0;" vertex="1" parent="1">
          <mxGeometry x="325" y="20" width="150" height="30" as="geometry" />
        </mxCell>
        <mxCell id="WUM4Ieeq0-gzBEpRa9HH-19" value="&lt;font style=&quot;font-size: 14px;&quot;&gt;Responsável por realizar a gestão de transações entre contas bancárias&amp;nbsp;&lt;br&gt;&lt;br&gt;&lt;/font&gt;" style="text;html=1;strokeColor=none;fillColor=none;align=center;verticalAlign=middle;whiteSpace=wrap;rounded=0;" vertex="1" parent="1">
          <mxGeometry x="-40" y="540" width="60" height="30" as="geometry" />
        </mxCell>
        <mxCell id="WUM4Ieeq0-gzBEpRa9HH-21" value="&lt;font style=&quot;font-size: 14px;&quot;&gt;Responsável por realizar a gestão de pagamentos&lt;/font&gt;" style="text;html=1;strokeColor=none;fillColor=none;align=center;verticalAlign=middle;whiteSpace=wrap;rounded=0;" vertex="1" parent="1">
          <mxGeometry x="710" y="525" width="60" height="30" as="geometry" />
        </mxCell>
        <mxCell id="WUM4Ieeq0-gzBEpRa9HH-24" value="&lt;font style=&quot;font-size: 14px;&quot;&gt;Responsável por realizar autenticação dos usuarios no sistema&lt;br&gt;&lt;br&gt;&lt;/font&gt;" style="text;html=1;strokeColor=none;fillColor=none;align=center;verticalAlign=middle;whiteSpace=wrap;rounded=0;" vertex="1" parent="1">
          <mxGeometry x="340" y="410" width="60" height="30" as="geometry" />
        </mxCell>
        <mxCell id="WUM4Ieeq0-gzBEpRa9HH-25" value="&lt;font style=&quot;font-size: 14px;&quot;&gt;- Dev&lt;br&gt;&amp;nbsp; - Prod&amp;nbsp;&lt;br&gt;&lt;br&gt;&lt;/font&gt;" style="text;html=1;strokeColor=none;fillColor=none;align=center;verticalAlign=middle;whiteSpace=wrap;rounded=0;" vertex="1" parent="1">
          <mxGeometry x="300" y="-210" width="60" height="30" as="geometry" />
        </mxCell>
      </root>
    </mxGraphModel>
  </diagram>
</mxfile>
